<svg width="200" height="120" viewBox="0 0 200 120" xmlns="http://www.w3.org/2000/svg">
  <!-- S letter -->
  <path d="M30 20 Q40 15 50 20 Q60 25 60 35 Q60 45 50 50 Q40 55 30 50 Q20 45 20 35 Q20 25 30 20" 
        fill="#FFD700" stroke="#000" stroke-width="2"/>
  
  <!-- P letter -->
  <path d="M80 20 L80 70 L90 70 Q100 70 100 60 Q100 50 90 50 L80 50" 
        fill="#0066CC" stroke="#000" stroke-width="2"/>
  <path d="M80 20 L90 20 Q100 20 100 30 Q100 40 90 40 L80 40" 
        fill="#0066CC" stroke="#000" stroke-width="2"/>
  
  <!-- Connecting line from S to P -->
  <path d="M60 35 Q70 35 75 35 Q80 35 80 30" 
        stroke="#000" stroke-width="2" fill="none"/>
  
  <!-- Spiral curl above P -->
  <path d="M100 30 Q105 25 110 30 Q105 35 100 30" 
        stroke="#000" stroke-width="1.5" fill="none"/>
  
  <!-- SelPic & Co text -->
  <text x="100" y="95" text-anchor="middle" font-family="cursive, serif" font-size="14" fill="#FF6B35">
    SelPic & Co
  </text>
</svg> 